<?xml version="1.0" encoding="UTF-8" standalone="no"?>
<!DOCTYPE svg PUBLIC "-//W3C//DTD SVG 1.1//EN" "http://www.w3.org/Graphics/SVG/1.1/DTD/svg11.dtd">
<svg width="100%" height="100%" viewBox="0 0 1200 800" version="1.1" xmlns="http://www.w3.org/2000/svg" xmlns:xlink="http://www.w3.org/1999/xlink" xml:space="preserve" xmlns:serif="http://www.serif.com/" style="fill-rule:evenodd;clip-rule:evenodd;stroke-linejoin:round;stroke-miterlimit:2;">
    <g transform="matrix(3.0315,0,0,-3.0315,-801.131,7693.7)">
        <path d="M309.943,2323.47L316.767,2323.47L316.767,2337.01C316.767,2339.43 316.767,2342.41 318.003,2344.15C319.233,2346.04 321.441,2346.66 322.674,2346.66C328.423,2346.66 328.423,2339.88 328.423,2337.53L328.423,2323.47L335.244,2323.47L335.244,2338.86C335.244,2341.07 335.244,2345.84 332.63,2348.97C330.273,2351.85 326.521,2352.93 324.062,2352.93C319.747,2352.93 317.387,2350.56 316.259,2349.48L316.259,2351.95L309.943,2351.95L309.943,2323.47" style="fill:rgb(226,24,54);fill-rule:nonzero;"/>
        <path d="M366.279,2334.66C366.536,2335.78 366.673,2336.94 366.688,2338.09C366.688,2345.27 360.988,2353.09 351.956,2353.09C343.177,2353.09 336.97,2345.68 336.97,2337.63C336.97,2329.32 343.539,2322.54 352.008,2322.54C358.68,2322.54 364.12,2327.31 365.761,2332.44L358.575,2332.44C357.293,2330.08 355.038,2328.8 352.008,2328.8C347.133,2328.8 344.463,2332.8 344.153,2334.66L366.279,2334.66ZM343.948,2340.15C345.231,2345.43 349.493,2346.82 352.008,2346.82C355.397,2346.82 358.934,2344.72 359.706,2340.15L343.948,2340.15" style="fill:rgb(226,24,54);"/>
        <path d="M375.448,2323.47L379.648,2323.47L385.038,2341.94L385.14,2341.94L390.483,2323.47L394.69,2323.47L405.107,2351.95L397.821,2351.95L392.58,2334.55L392.481,2334.55L387.856,2351.95L382.423,2351.95L377.752,2334.55L377.65,2334.55L372.468,2351.95L365.179,2351.95L375.448,2323.47Z" style="fill:rgb(226,24,54);fill-rule:nonzero;"/>
        <path d="M418.318,2323.47L424.575,2323.47L424.575,2326.9C426.263,2325 428.686,2322.54 434.178,2322.54C444.592,2322.54 448.34,2332.14 448.34,2337.84C448.34,2345.38 442.696,2352.93 434.023,2352.93C430.838,2352.93 427.499,2351.74 425.139,2349.38L425.139,2361.45L418.318,2361.45L418.318,2323.47ZM424.727,2338.09C424.727,2342.25 427.961,2346.66 433.196,2346.66C437.511,2346.66 441.516,2343.33 441.516,2337.78C441.516,2332.24 437.768,2328.8 433.301,2328.8C429.299,2328.8 424.727,2331.78 424.727,2338.09M480.204,2351.95L473.938,2351.95L473.938,2348.35L473.836,2348.35C473.628,2348.77 470.187,2352.93 464.394,2352.93C456.493,2352.93 450.124,2346.62 450.124,2337.89C450.124,2328.39 456.644,2322.54 463.986,2322.54C467.573,2322.54 471.785,2324.45 473.938,2327L473.938,2323.47L480.204,2323.47L480.204,2351.95ZM473.74,2337.78C473.74,2332.5 470.14,2328.8 465.417,2328.8C460.544,2328.8 456.948,2332.76 456.948,2337.58C456.948,2341.84 459.822,2346.66 465.417,2346.66C469.474,2346.66 473.74,2343.69 473.74,2337.78" style="fill:rgb(226,24,54);"/>
        <rect x="483.832" y="2323.47" width="6.824" height="37.979" style="fill:rgb(226,24,54);fill-rule:nonzero;"/>
        <path d="M522.781,2351.95L516.523,2351.95L516.523,2348.35L516.415,2348.35C516.208,2348.77 512.766,2352.93 506.974,2352.93C499.062,2352.93 492.703,2346.62 492.703,2337.89C492.703,2328.39 499.224,2322.54 506.562,2322.54C510.155,2322.54 514.358,2324.45 516.52,2327L516.52,2323.47L522.781,2323.47L522.781,2351.95ZM516.313,2337.78C516.313,2332.5 512.723,2328.8 507.999,2328.8C503.12,2328.8 499.53,2332.76 499.53,2337.58C499.53,2341.84 502.405,2346.66 507.999,2346.66C512.057,2346.66 516.313,2343.69 516.313,2337.78" style="fill:rgb(226,24,54);"/>
        <path d="M526.414,2323.47L533.235,2323.47L533.235,2337.01C533.235,2339.43 533.235,2342.41 534.474,2344.15C535.701,2346.04 537.915,2346.66 539.142,2346.66C544.888,2346.66 544.888,2339.88 544.888,2337.53L544.888,2323.47L551.718,2323.47L551.718,2338.86C551.718,2341.07 551.718,2345.84 549.094,2348.97C546.734,2351.85 542.992,2352.93 540.527,2352.93C536.212,2352.93 533.858,2350.56 532.724,2349.48L532.724,2351.95L526.414,2351.95L526.414,2323.47M575.969,2332.76C574.172,2329.88 571.917,2328.8 569.659,2328.8C564.52,2328.8 561.085,2332.86 561.085,2337.73C561.085,2343.59 565.193,2346.66 569.346,2346.66C573.559,2346.66 575.151,2343.94 575.969,2342.51L583.673,2342.51C580.745,2351.29 572.936,2352.93 569.346,2352.93C561.494,2352.93 554.261,2346.56 554.261,2337.84C554.261,2328.39 562.104,2322.54 569.402,2322.54C576.074,2322.54 581.359,2326.39 583.673,2332.76L575.969,2332.76" style="fill:rgb(226,24,54);fill-rule:nonzero;"/>
        <path d="M614.032,2334.66C614.233,2335.58 614.438,2336.76 614.438,2338.09C614.438,2345.27 608.744,2353.09 599.712,2353.09C590.933,2353.09 584.723,2345.68 584.723,2337.63C584.723,2329.32 591.293,2322.54 599.761,2322.54C606.431,2322.54 611.876,2327.31 613.515,2332.44L606.331,2332.44C605.046,2330.08 602.794,2328.8 599.765,2328.8C594.883,2328.8 592.216,2332.8 591.915,2334.66L614.032,2334.66ZM591.705,2340.15C592.99,2345.43 597.249,2346.82 599.761,2346.82C603.153,2346.82 606.691,2344.72 607.459,2340.15L591.705,2340.15M426.112,2417.89L416.989,2402.14L366.499,2404.98L371.551,2413.75L426.112,2417.89ZM462.613,2468.09L467.188,2450.7L395.542,2455.41L400.594,2464.19L462.613,2468.09ZM415.115,2489.4L457.056,2489.37L460.219,2477.48L410.069,2480.63L415.115,2489.4ZM411.429,2392.34L404.15,2379.82L351.974,2379.76L357.026,2388.53L411.429,2392.34ZM503.027,2426.12L490.399,2404.23L502.426,2404.23C508.002,2404.23 517.986,2407.01 521.058,2414.95C523.908,2422.32 518.673,2426.13 515.021,2426.13L503.027,2426.12ZM515.071,2447.06L525.562,2447.12C532.544,2447.16 539.827,2450.36 542.49,2456.84C544.947,2462.85 541.645,2467.97 537.268,2467.95L527.12,2467.96L515.071,2447.06ZM467.585,2450.7L478.179,2469.08L514.03,2471.39L515.281,2473.62L482.116,2475.93L489.872,2489.4L551.377,2489.4C570.291,2489.4 584.283,2482.64 578.844,2462.76C577.208,2456.73 569.52,2441.57 546.973,2435.21C551.758,2434.64 563.678,2429.36 561.624,2415.67C557.975,2391.39 526.541,2379.84 509.058,2379.83L436.442,2379.8L432.864,2393.84L470.896,2396.53L472.188,2398.75L430.938,2401.26L426.493,2417.91L485.192,2421.34L486.465,2423.55L381.014,2430.2L386.066,2438.97L499.574,2446.34L500.859,2448.55L467.582,2450.7" style="fill:rgb(226,24,54);"/>
    </g>
</svg>
