<svg width="43" height="38" viewBox="0 0 43 38" fill="none" xmlns="http://www.w3.org/2000/svg">
<path d="M21.054 38C32.6818 38 42.1081 29.4934 42.1081 19C42.1081 8.50659 32.6818 0 21.054 0C9.42613 0 -0.00012207 8.50659 -0.00012207 19C-0.00012207 29.4934 9.42613 38 21.054 38Z" fill="#EEEFF4"/>
<path d="M28.607 17.179H28.089L24.569 12.777C24.374 12.535 24.128 12.339 23.848 12.204C23.568 12.07 23.262 12 22.951 12H16.027C15.18 12 14.419 12.516 14.104 13.302L12.554 17.252C11.662 17.483 11 18.286 11 19.25V22.875C11 23.161 11.232 23.393 11.518 23.393H13.071C13.071 25.109 14.463 26.5 16.179 26.5C17.895 26.5 19.286 25.109 19.286 23.393H23.429C23.429 25.109 24.82 26.5 26.536 26.5C28.252 26.5 29.643 25.109 29.643 23.393H31.196C31.483 23.393 31.714 23.161 31.714 22.875V20.286C31.714 18.57 30.323 17.179 28.607 17.179ZM16.179 24.946C15.322 24.946 14.625 24.25 14.625 23.393C14.625 22.536 15.322 21.839 16.179 21.839C17.035 21.839 17.732 22.536 17.732 23.393C17.732 24.25 17.035 24.946 16.179 24.946ZM18.509 17.179H14.785L16.027 14.071H18.509V17.179ZM20.062 17.179V14.071H22.951L25.437 17.179H20.062ZM26.536 24.946C25.679 24.946 24.982 24.25 24.982 23.393C24.982 22.536 25.679 21.839 26.536 21.839C27.392 21.839 28.089 22.536 28.089 23.393C28.089 24.25 27.392 24.946 26.536 24.946Z" fill="#161826"/>
</svg>
