<?xml version="1.0" encoding="UTF-8" standalone="no"?>
<!DOCTYPE svg PUBLIC "-//W3C//DTD SVG 1.1//EN" "http://www.w3.org/Graphics/SVG/1.1/DTD/svg11.dtd">
<svg width="100%" height="100%" viewBox="0 0 1200 800" version="1.1" xmlns="http://www.w3.org/2000/svg" xmlns:xlink="http://www.w3.org/1999/xlink" xml:space="preserve" xmlns:serif="http://www.serif.com/" style="fill-rule:evenodd;clip-rule:evenodd;stroke-linejoin:round;stroke-miterlimit:2;">
    <path d="M231.611,462.701C214.511,462.701 206.292,449.555 210.584,434.348C219.445,402.829 276.387,356.122 315.191,356.122C343.487,356.122 341.333,381.441 324.745,403.037L315.575,413.186C282.687,445.459 252.199,462.701 231.611,462.701M370.302,250.157C320.779,250.176 266.245,280.472 231.995,309.164L234.699,313.083C287.86,275.818 361.625,251.588 381.96,287.934C392.698,307.107 374.471,345.829 348.802,376.433C354.941,362.918 350.887,336.968 315.095,336.968C255.595,336.968 138.462,415.786 138.462,496.451C138.462,528.762 160.877,549.843 197.8,549.843C296.629,549.843 430.659,387.844 430.659,306.48C430.659,277.738 414.125,250.157 370.302,250.157M497.539,462.701C491.786,462.701 486.997,460.694 484.001,457.028C480.878,453.186 479.947,447.74 481.428,442.117C484.716,429.917 497.866,420.333 511.389,420.333L543.197,420.333L531.831,462.701L497.539,462.701ZM588.954,335.687C579.858,324.503 565.131,319.499 554.593,319.499L496.793,319.499L486.982,356.091L541.493,356.091L546.716,356.641C546.77,356.641 551.72,357.218 554.481,360.933C556.712,364.041 557.039,368.656 555.435,374.71L552.858,384.341L518.512,384.341C488.951,384.341 447.74,405.548 438.551,439.802C433.982,456.882 437.986,471.678 446.863,482.551C455.67,493.343 472.293,499.301 490.251,499.301L522.058,499.301L522.039,499.301L562.466,499.301L581.427,428.49L595.385,376.441C600.865,355.975 594.927,342.975 588.954,335.687M985.997,319.499C970.358,319.499 955.828,324.126 944.013,332.883C932.082,341.718 925.501,352.333 921.578,366.975C913.067,398.71 938.005,414.025 958.043,424.882C972.416,432.667 984.847,439.382 982.155,449.328C980.255,456.467 977.135,462.713 959.455,462.713L905.482,462.713L895.69,499.301L955.432,499.301C971.451,499.301 986.235,495.967 998.147,486.82C1010.07,477.644 1016.81,464.859 1020.97,449.255C1024.97,434.405 1022.28,420.221 1012.72,409.636C1004.75,400.748 993.297,394.575 983.201,389.121C970.262,382.16 958.062,375.591 960.193,367.629C961.497,362.81 966.278,356.091 976.728,356.091L1029.23,356.091L1039.05,319.499L985.997,319.499ZM672.769,319.499C657.134,319.499 642.607,324.126 630.788,332.883C618.858,341.718 612.277,352.333 608.315,366.975C599.823,398.71 624.781,414.025 644.815,424.882C659.196,432.667 671.596,439.382 668.93,449.328C667.011,456.467 663.907,462.713 646.227,462.713L592.262,462.713L582.45,499.301L642.188,499.301C658.226,499.301 673.007,495.967 684.919,486.82C696.861,477.644 703.584,464.859 707.749,449.255C711.734,434.405 709.034,420.221 699.515,409.636C691.549,400.748 680.072,394.575 669.957,389.121C657.038,382.16 644.853,375.591 646.988,367.629C648.269,362.81 653.069,356.091 663.499,356.091L715.972,356.091L725.803,319.499L672.769,319.499ZM747.014,499.301L793.833,319.499L754.283,319.499L707.426,499.301L747.014,499.301ZM899.151,319.499C829.456,319.749 792.983,366.164 781.406,409.402C767.691,460.671 794.983,499.305 844.894,499.305L878.34,499.305L888.132,462.717L854.698,462.717C836.017,462.717 810.329,448.017 820.683,409.402C828.906,378.71 858.832,356.095 891.659,356.095L912.897,356.095L922.709,319.503L899.151,319.503L899.151,319.499ZM1036.25,491.101L1039.72,491.101L1039.72,483.317L1042.48,483.317C1044.32,483.317 1045.62,483.517 1046.34,483.932C1047.57,484.682 1048.22,486.197 1048.22,488.47L1048.22,490.047L1048.27,490.682C1048.31,490.763 1048.31,490.824 1048.33,490.913C1048.35,490.97 1048.37,491.024 1048.38,491.105L1051.64,491.105L1051.52,490.847C1051.46,490.686 1051.4,490.336 1051.36,489.82C1051.32,489.297 1051.29,488.82 1051.3,488.367L1051.3,486.901C1051.29,485.913 1050.96,484.886 1050.23,483.847C1049.52,482.805 1048.37,482.159 1046.82,481.909C1048.04,481.709 1049,481.405 1049.68,480.94C1050.98,480.12 1051.62,478.817 1051.6,477.059C1051.62,474.586 1050.59,472.917 1048.57,472.059C1047.42,471.594 1045.63,471.355 1043.16,471.355L1036.25,471.355L1036.25,491.101L1036.25,491.101ZM1046.17,480.44C1045.44,480.724 1044.34,480.886 1042.86,480.886L1039.72,480.886L1039.72,473.728L1042.7,473.728C1044.62,473.728 1046.02,473.974 1046.88,474.459C1047.77,474.963 1048.22,475.924 1048.22,477.359C1048.22,478.874 1047.52,479.909 1046.17,480.44M1056.25,468.586C1052.73,465.09 1048.47,463.355 1043.49,463.355C1038.55,463.355 1034.31,465.09 1030.8,468.586C1027.3,472.094 1025.57,476.336 1025.57,481.27C1025.57,486.27 1027.3,490.528 1030.77,494.036C1034.28,497.543 1038.52,499.313 1043.51,499.313C1048.49,499.313 1052.73,497.543 1056.24,494.036C1059.77,490.497 1061.54,486.259 1061.54,481.27C1061.53,476.305 1059.76,472.063 1056.25,468.586M1054.45,470.324C1057.48,473.359 1058.97,476.99 1058.97,481.27C1058.97,485.574 1057.48,489.255 1054.45,492.297C1051.45,495.34 1047.81,496.851 1043.5,496.851C1039.21,496.851 1035.56,495.34 1032.52,492.297C1029.57,489.255 1028.07,485.574 1028.07,481.27C1028.07,476.994 1029.57,473.359 1032.56,470.324C1035.6,467.282 1039.25,465.771 1043.49,465.771C1047.77,465.774 1051.45,467.282 1054.45,470.324" style="fill:rgb(0,0,102);fill-rule:nonzero;"/>
</svg>
