<?xml version="1.0" encoding="UTF-8" standalone="no"?>
<!DOCTYPE svg PUBLIC "-//W3C//DTD SVG 1.1//EN" "http://www.w3.org/Graphics/SVG/1.1/DTD/svg11.dtd">
<svg width="100%" height="100%" viewBox="0 0 1200 800" version="1.1" xmlns="http://www.w3.org/2000/svg" xmlns:xlink="http://www.w3.org/1999/xlink" xml:space="preserve" xmlns:serif="http://www.serif.com/" style="fill-rule:evenodd;clip-rule:evenodd;stroke-linejoin:round;stroke-miterlimit:2;">
    <path d="M385.406,526.08C265.349,577.122 187.347,573.528 151.402,515.296C138.462,495.166 135.226,469.286 141.697,437.654C147.448,408.898 160.388,378.703 180.518,347.072C192.02,329.818 206.039,311.127 222.574,290.997C233.357,278.057 249.174,260.444 270.022,238.157C253.487,264.757 242.703,291.356 237.671,317.956C229.044,359.653 239.108,390.926 267.865,411.774C280.086,421.12 297.161,426.331 319.087,427.41C341.013,428.488 365.996,425.073 394.033,417.165L1061.54,241.393L385.406,526.08Z" style="fill:rgb(51,49,50);fill-rule:nonzero;"/>
</svg>
