<svg width="43" height="38" viewBox="0 0 43 38" fill="none" xmlns="http://www.w3.org/2000/svg">
<path d="M21.0541 38C32.682 38 42.1082 29.4934 42.1082 19C42.1082 8.50659 32.682 0 21.0541 0C9.42625 0 0 8.50659 0 19C0 29.4934 9.42625 38 21.0541 38Z" fill="#EEEFF4"/>
<path d="M16.959 18.5C18.452 18.5 19.667 17.285 19.667 15.792C19.667 14.298 18.452 13.083 16.959 13.083C15.465 13.083 14.25 14.298 14.25 15.792C14.25 17.285 15.465 18.5 16.959 18.5ZM28.875 14.167H21.292C20.993 14.167 20.75 14.409 20.75 14.708V19.583H13.167V12.542C13.167 12.242 12.925 12 12.625 12H11.542C11.243 12 11 12.242 11 12.542V24.458C11 24.758 11.243 25 11.542 25H12.625C12.925 25 13.167 24.758 13.167 24.458V22.833H30.5V24.458C30.5 24.758 30.743 25 31.042 25H32.125C32.425 25 32.667 24.758 32.667 24.458V17.958C32.667 15.864 30.97 14.167 28.875 14.167Z" fill="#161826"/>
</svg>
