<svg width="43" height="38" viewBox="0 0 43 38" fill="none" xmlns="http://www.w3.org/2000/svg">
<path d="M21.0541 38C32.682 38 42.1082 29.4934 42.1082 19C42.1082 8.50659 32.682 0 21.0541 0C9.42625 0 0 8.50659 0 19C0 29.4934 9.42625 38 21.0541 38Z" fill="#EEEFF4"/>
<path d="M11 18.5V22.75C11 23.338 11.474 23.812 12.062 23.812H13.125V17.438H12.062C11.474 17.438 11 17.912 11 18.5ZM26.406 13.188H22.687V11.062C22.687 10.475 22.212 10 21.625 10C21.037 10 20.562 10.475 20.562 11.062V13.188H16.843C15.376 13.188 14.187 14.376 14.187 15.844V24.875C14.187 26.047 15.14 27 16.312 27H26.937C28.109 27 29.062 26.047 29.062 24.875V15.844C29.062 14.376 27.873 13.188 26.406 13.188ZM19.5 23.812H17.375V22.75H19.5V23.812ZM18.437 19.828C17.703 19.828 17.109 19.234 17.109 18.5C17.109 17.766 17.703 17.172 18.437 17.172C19.171 17.172 19.765 17.766 19.765 18.5C19.765 19.234 19.171 19.828 18.437 19.828ZM22.687 23.812H20.562V22.75H22.687V23.812ZM25.875 23.812H23.75V22.75H25.875V23.812ZM24.812 19.828C24.078 19.828 23.484 19.234 23.484 18.5C23.484 17.766 24.078 17.172 24.812 17.172C25.546 17.172 26.14 17.766 26.14 18.5C26.14 19.234 25.546 19.828 24.812 19.828ZM31.187 17.438H30.125V23.812H31.187C31.775 23.812 32.25 23.338 32.25 22.75V18.5C32.25 17.912 31.775 17.438 31.187 17.438Z" fill="#161826"/>
</svg>
