<?xml version="1.0" encoding="UTF-8" standalone="no"?>
<!DOCTYPE svg PUBLIC "-//W3C//DTD SVG 1.1//EN" "http://www.w3.org/Graphics/SVG/1.1/DTD/svg11.dtd">
<svg width="100%" height="100%" viewBox="0 0 1200 800" version="1.1" xmlns="http://www.w3.org/2000/svg" xmlns:xlink="http://www.w3.org/1999/xlink" xml:space="preserve" xmlns:serif="http://www.serif.com/" style="fill-rule:evenodd;clip-rule:evenodd;stroke-linejoin:round;stroke-miterlimit:2;">
    <path d="M995.485,537.479C994.823,537.11 993.737,536.923 992.273,536.923L990.028,536.923L990.028,542.397L992.405,542.397C993.527,542.397 994.362,542.279 994.923,542.064C995.959,541.654 996.493,540.869 996.493,539.706C996.493,538.574 996.151,537.835 995.485,537.479ZM992.638,535.089C994.499,535.089 995.859,535.267 996.762,535.636C998.318,536.284 999.116,537.561 999.116,539.464C999.116,540.81 998.596,541.813 997.615,542.429C996.952,542.841 996.202,543.091 995.425,543.159C996.602,543.369 997.465,543.857 998.017,544.656C998.524,545.327 998.809,546.141 998.833,546.982L998.833,548.091C998.833,548.456 998.838,548.839 998.879,549.231C998.875,549.502 998.927,549.771 999.034,550.021L999.134,550.203L996.602,550.203C996.589,550.158 996.561,550.103 996.561,550.08C996.529,550.021 996.529,549.92 996.507,549.879L996.493,549.405L996.493,548.182C996.493,546.458 995.991,545.294 995.056,544.756C994.476,544.414 993.505,544.277 992.09,544.277L990.028,544.277L990.028,550.203L987.346,550.203L987.346,535.089L992.638,535.089ZM984.554,534.322C982.314,536.527 981.07,539.555 981.114,542.698C981.114,546.001 982.263,548.839 984.517,551.134C986.709,553.397 989.743,554.656 992.893,554.61C996.04,554.665 999.071,553.404 1001.25,551.134C1003.56,548.839 1004.7,546.001 1004.7,542.698C1004.75,539.552 1003.5,536.521 1001.25,534.322C999.066,532.063 996.04,530.807 992.898,530.855C989.659,530.855 986.848,532.023 984.549,534.322L984.554,534.322ZM1002.62,552.461C1000.07,555.081 996.549,556.536 992.893,556.481C989.242,556.532 985.726,555.08 983.176,552.466C980.507,549.761 979.198,546.512 979.198,542.671C979.198,538.893 980.507,535.663 983.208,532.99C985.749,530.382 989.257,528.935 992.898,528.994C996.703,528.994 999.942,530.317 1002.62,532.99C1005.29,535.645 1006.66,538.893 1006.66,542.671C1006.66,546.512 1005.29,549.756 1002.62,552.461M994.294,133.397L994.412,203.326L973.016,211.876L973.029,173.462L958.321,179.525L958.412,506.817L970.694,511.817L970.694,541.48L914.045,519.445L914.068,490.845L927.736,495.452L927.704,190.812L912.991,195.79L912.991,233.227L892.37,240.271L892.407,173.804L994.294,133.397M882.05,185.215L882.05,243.392L858.66,251.124L858.66,211.365L841.342,215.644L841.342,270.327C841.342,271.969 841.296,274.241 842.209,276.805C849.746,297.942 885.449,346.492 891.193,362.122C891.617,363.313 891.95,366.739 891.95,367.848C891.95,389.5 891.996,486.022 891.996,499.513C891.996,505.904 885.125,509.942 879.801,508.833C869.377,506.657 839.312,498.851 827.336,495.329C824.69,494.526 819.717,489.745 819.717,483.353C819.672,466.624 819.699,421.969 819.699,421.969L845.005,427.535L845.001,471.565L861.63,475.662L861.63,376.101C861.63,374.919 861.265,371.995 860.937,371.137C855.097,356.091 820.433,306.327 812.395,287.604C810.871,284.063 810.629,280.97 810.629,278.265C810.629,262.142 810.607,222.515 810.607,206.283C810.607,200.571 815.867,194.243 820.958,192.432C831.022,188.828 858.979,180.497 872.57,177.486C877.297,176.437 882.05,180.1 882.05,185.215M345.108,187.363L345.108,215.325L335.491,212.98C335.491,212.98 350.017,363.888 350.743,363.56C350.67,363.651 362.248,219.166 362.248,219.166L353.672,217.259L353.676,189.403L400.411,199.097L400.388,226.635L391.123,224.956L364.014,494.462L336.55,500.991L304.268,204.773L295.755,202.346L295.755,173.905L345.108,187.363M488.639,211.146L488.658,270.181L467.658,268.014L467.649,236.202L451.85,234.34L451.85,315.41L479.278,315.365L479.305,345.402L451.827,345.402L451.85,451.938L468.675,450.022L468.734,401.786L493.074,399.382L493.074,474.704L406.201,486.123L406.201,458.64L420.184,456.395L420.184,229.901L409.695,228.213L409.695,200.735L488.635,211.146M661.674,213.993L661.647,241.069L648.95,241.704L648.977,444.557L667.016,445.565L667.039,393.497L691.743,394.842L691.743,474.498L608,470.379L608,443.37L618.338,443.516L618.397,242.744L605.504,242.926L605.504,215.955L661.674,213.993M542.245,318.467L542.245,241.854L561.516,242.579L561.534,318.467L542.245,318.467ZM599.062,443.297C590.878,443.252 590.768,436.682 590.768,436.682L590.755,359.335C590.586,341.629 580.084,337.619 580.084,337.619C584.6,334.266 590.499,328.864 590.531,320.214C590.522,310.465 590.499,267.567 590.499,244.258C589.847,235.431 588.136,218.217 561.292,215.795C552.483,214.787 498.699,212.022 498.699,212.022L498.699,239.158L512.719,240.221L512.641,446.076L502.303,446.815L502.344,473.946L552.879,471.017L552.834,444.009L541.912,444.406L541.912,352.058C541.912,352.026 563.272,352.054 563.272,352.054L563.309,439.306C564.029,459.771 565.202,471.41 599.062,470.246C599.062,470.246 599.09,443.352 599.062,443.297M747.735,385.714L754.816,308.672C754.784,308.672 762.617,387.712 762.617,387.712L747.735,385.714ZM810.187,463.941L800.451,462.048L767.006,202.551L741.544,206.283L711.557,449.196L701.351,448.247L701.37,475.347L750.199,481.223L750.199,453.822L742.119,452.75L745.062,416.663L764.41,419.319L767.311,456.341L758.497,454.981L758.497,482.423L810.164,491.62L810.187,463.941M286.781,171.099L286.794,235.431L263.669,229.491L263.669,192.094L245.571,185.698L245.571,308.124L278.633,308.143L278.633,342.268L245.169,342.286L245.215,500.694L263.842,494.07L263.856,433.324L290.431,424.3L290.444,514.007L193.402,552.918L193.384,522.474L210.766,514.436L210.684,171.779L193.361,163.863L193.338,133.333L286.781,171.099" style="fill:rgb(105,101,102);fill-rule:nonzero;"/>
    <path d="M802.919,558.712C799.56,558.467 796.198,558.281 792.832,558.155C792.773,558.114 775.865,557.562 766.969,557.781C695.055,559.268 629.866,579.693 580.257,611.692C577.059,613.75 573.145,613.335 571.425,612.65C563.414,609.594 525.52,595.287 524.334,594.849C522.947,594.306 519.826,593.868 522.463,590.405C528.426,582.554 538.933,576.801 547.318,571.992C561.424,563.89 578.035,557.402 593.396,552.147C589.163,552.53 587.201,552.58 584.454,552.877C577.115,553.673 569.819,554.827 562.592,556.335C539.959,561.061 515.876,568.233 495.875,580.095C492.613,582.034 488.265,580.414 488.265,580.414L459.387,569.994C459.387,569.994 454.564,568.552 459.66,565.806C492.485,548.041 531.072,535.718 572.812,529.536C577.708,528.814 582.618,528.183 587.538,527.643C582.902,527.338 578.264,527.07 573.624,526.84C566.491,526.589 559.353,526.541 552.218,526.694C489.419,528.004 431.708,543.602 385.087,568.986C383.235,570.049 383.034,572.626 384.53,573.224C405.329,582.887 585.609,666.224 585.86,666.311C587.899,667.269 590.563,666.156 591.822,664.486C627.836,617.281 689.179,580.975 763.082,565.099C776.238,562.262 789.536,560.13 802.919,558.712" style="fill:rgb(253,225,52);fill-rule:nonzero;"/>
</svg>
